<mxfile host="app.diagrams.net" modified="2024-05-22T16:48:22.459Z" agent="Mozilla/5.0 (Macintosh; Intel Mac OS X 10_15_7) AppleWebKit/605.1.15 (KHTML, like Gecko) Version/17.4.1 Safari/605.1.15" etag="C0uDAzZ9CCkBLkDM-Kqq" version="24.4.6" type="github">
  <diagram name="Seite-1" id="6MZ9BEfU-lphtc_Hy-2c">
    <mxGraphModel dx="1150" dy="975" grid="0" gridSize="10" guides="1" tooltips="1" connect="1" arrows="1" fold="1" page="0" pageScale="1" pageWidth="827" pageHeight="1169" math="0" shadow="0">
      <root>
        <mxCell id="0" />
        <mxCell id="1" parent="0" />
        <mxCell id="DLQZ3YlgWoDm1Kt42oJS-1" style="edgeStyle=none;curved=1;rounded=0;orthogonalLoop=1;jettySize=auto;html=1;entryX=0;entryY=0.5;entryDx=0;entryDy=0;fontSize=12;startSize=8;endSize=8;sketch=1;curveFitting=1;jiggle=2;" edge="1" parent="1" source="fNutTFXeI48zOu3Gu-T--1" target="fNutTFXeI48zOu3Gu-T--2">
          <mxGeometry relative="1" as="geometry" />
        </mxCell>
        <mxCell id="fNutTFXeI48zOu3Gu-T--1" value="" style="rounded=0;whiteSpace=wrap;html=1;sketch=1;curveFitting=1;jiggle=2;fillColor=#f8cecc;strokeColor=#b85450;" parent="1" vertex="1">
          <mxGeometry x="-115" y="-30" width="160" height="80" as="geometry" />
        </mxCell>
        <mxCell id="DLQZ3YlgWoDm1Kt42oJS-2" style="edgeStyle=none;curved=1;rounded=0;orthogonalLoop=1;jettySize=auto;html=1;fontSize=12;startSize=8;endSize=8;sketch=1;curveFitting=1;jiggle=2;exitX=1;exitY=0.5;exitDx=0;exitDy=0;" edge="1" parent="1" source="fNutTFXeI48zOu3Gu-T--2">
          <mxGeometry relative="1" as="geometry">
            <mxPoint x="406" y="-67" as="targetPoint" />
          </mxGeometry>
        </mxCell>
        <mxCell id="fNutTFXeI48zOu3Gu-T--2" value="" style="rounded=0;whiteSpace=wrap;html=1;sketch=1;curveFitting=1;jiggle=2;fillColor=#dae8fc;strokeColor=#6c8ebf;" parent="1" vertex="1">
          <mxGeometry x="146" y="-32" width="160" height="80" as="geometry" />
        </mxCell>
        <mxCell id="fNutTFXeI48zOu3Gu-T--3" value="" style="rounded=0;whiteSpace=wrap;html=1;sketch=1;curveFitting=1;jiggle=2;fillColor=#d5e8d4;strokeColor=#82b366;" parent="1" vertex="1">
          <mxGeometry x="407" y="-110" width="160" height="80" as="geometry" />
        </mxCell>
        <mxCell id="fNutTFXeI48zOu3Gu-T--4" value="" style="rounded=0;whiteSpace=wrap;html=1;sketch=1;curveFitting=1;jiggle=2;fillColor=#d5e8d4;strokeColor=#82b366;" parent="1" vertex="1">
          <mxGeometry x="407" y="50" width="160" height="80" as="geometry" />
        </mxCell>
      </root>
    </mxGraphModel>
  </diagram>
</mxfile>
